<svg width="168" height="167" viewBox="0 0 168 167" fill="none" xmlns="http://www.w3.org/2000/svg">
<path d="M3.32016 30.5227C4.47981 15.325 16.5342 3.36919 31.739 2.3059C47.9138 1.17476 68.5711 0 84.6004 0C100.557 0 121.101 1.16419 137.243 2.29059C152.545 3.35844 164.641 15.4544 165.709 30.7572C166.836 46.8992 168 67.4425 168 83.3995C168 99.2103 166.857 119.524 165.74 135.597C164.663 151.097 152.282 163.276 136.77 164.157C120.698 165.07 100.396 166.005 84.6004 166.005C68.7314 166.005 48.3139 165.062 32.2071 164.145C16.7935 163.267 4.45617 151.23 3.28663 135.836C2.0628 119.727 0.803711 99.2923 0.803711 83.3995C0.803711 67.3616 2.08591 46.6982 3.32016 30.5227Z" fill="#F3F4F9"/>
<path d="M68.3729 83.0024C54.7588 83.0024 54.7588 89.0948 54.7588 96.6166V100.02C54.7588 109.414 54.7588 117.038 71.7765 117.038H99.0048C112.619 117.038 116.022 109.414 116.022 100.02V96.6166C116.022 89.0948 116.022 83.0024 102.408 83.0024C99.0048 83.0024 98.0518 83.7172 96.2819 85.0446L92.8103 88.7204C88.7942 93.0088 81.9871 93.0088 77.9369 88.7204L74.4993 85.0446C72.7295 83.7172 71.7765 83.0024 68.3729 83.0024Z" stroke="#5271FF" stroke-width="5.10531" stroke-miterlimit="10" stroke-linecap="round" stroke-linejoin="round"/>
<path d="M109.216 83.0027V62.5814C109.216 55.0596 109.216 48.9673 95.6018 48.9673H75.1806C61.5664 48.9673 61.5664 55.0596 61.5664 62.5814V83.0027" stroke="#5271FF" stroke-width="5.10531" stroke-miterlimit="10" stroke-linecap="round" stroke-linejoin="round"/>
<path opacity="0.4" d="M80.4551 73.5747H91.7889" stroke="#5271FF" stroke-width="5.10531" stroke-linecap="round" stroke-linejoin="round"/>
<path opacity="0.4" d="M77.6299 63.3643H94.6476" stroke="#5271FF" stroke-width="5.10531" stroke-linecap="round" stroke-linejoin="round"/>
</svg>
