<svg width="168" height="167" viewBox="0 0 168 167" fill="none" xmlns="http://www.w3.org/2000/svg">
<path d="M3.32114 30.5227C4.48079 15.325 16.5352 3.36919 31.74 2.3059C47.9148 1.17476 68.572 0 84.6013 0C100.558 0 121.102 1.16419 137.244 2.29059C152.546 3.35844 164.642 15.4544 165.71 30.7572C166.837 46.8992 168.001 67.4425 168.001 83.3995C168.001 99.2103 166.858 119.524 165.741 135.597C164.664 151.097 152.283 163.276 136.771 164.157C120.699 165.07 100.397 166.005 84.6013 166.005C68.7324 166.005 48.3148 165.062 32.208 164.145C16.7944 163.267 4.45714 151.23 3.2876 135.836C2.06378 119.727 0.804688 99.2923 0.804688 83.3995C0.804688 67.3616 2.08689 46.6982 3.32114 30.5227Z" fill="#F3F4F9"/>
<path d="M78.9672 50.4337L62.3339 56.7004C58.5005 58.1337 55.3672 62.667 55.3672 66.7337V91.5004C55.3672 95.4337 57.9672 100.6 61.1339 102.967L75.4672 113.667C80.1672 117.2 87.9005 117.2 92.6005 113.667L106.934 102.967C110.101 100.6 112.701 95.4337 112.701 91.5004V66.7337C112.701 62.6337 109.567 58.1004 105.734 56.667L89.1005 50.4337C86.2672 49.4004 81.7339 49.4004 78.9672 50.4337Z" stroke="#5271FF" stroke-width="5" stroke-linecap="round" stroke-linejoin="round"/>
<path opacity="0.4" d="M74.1699 82.5673L79.5366 87.9339L93.8699 73.6006" stroke="#5271FF" stroke-width="5" stroke-linecap="round" stroke-linejoin="round"/>
</svg>
