<svg width="34" height="34" viewBox="0 0 34 34" fill="none" xmlns="http://www.w3.org/2000/svg">
<path d="M17 0.333374C26.186 0.333374 33.6667 7.81046 33.6667 17.0097C33.6667 26.1896 26.186 33.6667 17 33.6667C7.81407 33.6667 0.333374 26.1896 0.333374 17.0097C0.333374 7.81046 7.81407 0.333374 17 0.333374ZM15.1017 10.3832C14.7478 10.3832 14.41 10.4636 14.0882 10.6244C13.686 10.8495 13.3643 11.2033 13.1873 11.6214C13.0747 11.9108 12.8977 12.7791 12.8977 12.7952C12.7208 13.7439 12.6242 15.2875 12.6242 16.992C12.6242 18.6177 12.7208 20.0954 12.8656 21.0602C12.8816 21.0763 13.0586 22.1536 13.2516 22.5234C13.6056 23.1988 14.2973 23.6169 15.0374 23.6169H15.1017C15.5843 23.6008 16.5979 23.1827 16.5979 23.1666C18.3031 22.4591 21.6654 20.2562 23.0168 18.7929L23.1133 18.6965C23.2903 18.5196 23.5155 18.2462 23.5637 18.1819C23.8211 17.8442 23.9498 17.4262 23.9498 17.0097C23.9498 16.5418 23.8051 16.1076 23.5316 15.7539C23.4672 15.6895 23.2259 15.4162 23.0007 15.1911C21.6815 13.7761 18.2388 11.4606 16.437 10.7531C16.1635 10.6421 15.4717 10.3993 15.1017 10.3832Z" fill="#9DA5BE"/>
</svg>
